<svg xmlns="http://www.w3.org/2000/svg" viewBox="0 0 64 88"><path d="M40 0H8C5.8 0 4 1.8 4 4v80c0 2.2 1.8 4 4 4h48c2.2 0 4-1.8 4-4V24L40 0z" fill="white"/><path d="M40 0l20 24H44c-2.2 0-4-1.8-4-4V0z" fill="rgba(0,0,0,0.15)"/><circle cx="18" cy="44" r="4" fill="#888"/><rect x="26" y="41" width="26" height="5" rx="2" fill="#888"/><circle cx="18" cy="58" r="4" fill="#888"/><rect x="26" y="55" width="26" height="5" rx="2" fill="#888"/><circle cx="18" cy="72" r="4" fill="#888"/><rect x="26" y="69" width="18" height="5" rx="2" fill="#888"/></svg>
